<svg xmlns="http://www.w3.org/2000/svg" xmlns:xlink="http://www.w3.org/1999/xlink" width="150" zoomAndPan="magnify" viewBox="0 0 112.5 60" height="80" preserveAspectRatio="xMidYMid meet" version="1.0"><defs><clipPath id="6767b89176"><path d="M 50 24 L 63 24 L 63 35.976562 L 50 35.976562 Z M 50 24 " clip-rule="nonzero"/></clipPath><clipPath id="6743a1304f"><path d="M 105 29 L 106.5 29 L 106.5 31 L 105 31 Z M 105 29 " clip-rule="nonzero"/></clipPath></defs><g clip-path="url(#6767b89176)"><path fill="#e32052" d="M 56.25 24.011719 L 58.070312 25.691406 L 60.578125 25.757812 L 60.644531 28.199219 L 62.367188 29.976562 L 60.644531 31.753906 L 60.578125 34.195312 L 58.070312 34.265625 L 56.25 35.945312 L 54.429688 34.265625 L 51.921875 34.195312 L 51.855469 31.753906 L 50.132812 29.976562 L 51.855469 28.199219 L 51.921875 25.757812 L 54.429688 25.691406 L 56.25 24.011719 " fill-opacity="1" fill-rule="nonzero"/></g><path fill="#e32052" d="M 42.964844 26.808594 L 39.714844 29.976562 L 42.964844 33.144531 L 46.214844 29.976562 L 42.964844 26.808594 " fill-opacity="1" fill-rule="nonzero"/><path fill="#e32052" d="M 33.355469 27.597656 L 30.914062 29.976562 L 33.355469 32.359375 L 35.796875 29.976562 L 33.355469 27.597656 " fill-opacity="1" fill-rule="nonzero"/><path fill="#e32052" d="M 25.214844 28.242188 L 23.433594 29.976562 L 25.214844 31.714844 L 26.996094 29.976562 L 25.214844 28.242188 " fill-opacity="1" fill-rule="nonzero"/><path fill="#e32052" d="M 18.21875 28.710938 L 16.917969 29.976562 L 18.21875 31.246094 L 19.515625 29.976562 L 18.21875 28.710938 " fill-opacity="1" fill-rule="nonzero"/><path fill="#e32052" d="M 12.09375 29.09375 L 11.191406 29.976562 L 12.09375 30.859375 L 13 29.976562 L 12.09375 29.09375 " fill-opacity="1" fill-rule="nonzero"/><path fill="#e32052" d="M 6.636719 29.355469 L 6 29.976562 L 6.636719 30.597656 L 7.273438 29.976562 L 6.636719 29.355469 " fill-opacity="1" fill-rule="nonzero"/><path fill="#e32052" d="M 69.535156 26.808594 L 72.785156 29.976562 L 69.535156 33.144531 L 66.285156 29.976562 L 69.535156 26.808594 " fill-opacity="1" fill-rule="nonzero"/><path fill="#e32052" d="M 79.144531 27.597656 L 81.585938 29.976562 L 79.144531 32.359375 L 76.703125 29.976562 L 79.144531 27.597656 " fill-opacity="1" fill-rule="nonzero"/><path fill="#e32052" d="M 87.285156 28.242188 L 89.066406 29.976562 L 87.285156 31.714844 L 85.503906 29.976562 L 87.285156 28.242188 " fill-opacity="1" fill-rule="nonzero"/><path fill="#e32052" d="M 94.28125 28.710938 L 95.582031 29.976562 L 94.28125 31.246094 L 92.984375 29.976562 L 94.28125 28.710938 " fill-opacity="1" fill-rule="nonzero"/><path fill="#e32052" d="M 100.40625 29.09375 L 101.308594 29.976562 L 100.40625 30.859375 L 99.5 29.976562 L 100.40625 29.09375 " fill-opacity="1" fill-rule="nonzero"/><g clip-path="url(#6743a1304f)"><path fill="#e32052" d="M 105.863281 29.355469 L 106.5 29.976562 L 105.863281 30.597656 L 105.226562 29.976562 L 105.863281 29.355469 " fill-opacity="1" fill-rule="nonzero"/></g></svg>